<?xml version="1.0" standalone="no"?>
<!DOCTYPE svg PUBLIC "-//W3C//DTD SVG 20010904//EN"
 "http://www.w3.org/TR/2001/REC-SVG-20010904/DTD/svg10.dtd">
<svg version="1.0" xmlns="http://www.w3.org/2000/svg"
 width="300.000000pt" height="39.000000pt" viewBox="0 0 300.000000 39.000000"
 preserveAspectRatio="xMidYMid meet">

<g transform="translate(0.000000,39.000000) scale(0.100000,-0.100000)"
fill="#000000" stroke="none">
<path d="M1759 317 c-47 -24 -32 -88 20 -86 23 2 24 2 3 6 -48 9 -46 66 3 75
11 2 15 6 9 10 -5 4 -21 1 -35 -5z"/>
<path d="M2062 314 c-40 -28 -23 -84 25 -84 26 0 50 38 40 64 -11 27 -42 37
-65 20z m43 -39 c0 -23 -5 -31 -21 -33 -24 -3 -38 20 -28 50 4 13 13 18 27 16
17 -2 22 -10 22 -33z"/>
<path d="M56 213 c-25 -59 -46 -111 -46 -115 0 -15 78 -8 84 7 8 21 82 20 94
-1 6 -11 24 -17 51 -18 22 0 41 1 41 4 0 3 -22 55 -48 115 l-49 110 -40 3 -40
3 -47 -108z m103 -35 c1 -5 -8 -8 -19 -8 -23 0 -24 4 -8 33 11 21 11 21 19 2
4 -11 8 -23 8 -27z"/>
<path d="M650 202 c0 -117 0 -119 23 -116 12 1 30 3 40 3 12 1 17 9 17 30 0
26 3 29 47 34 55 6 83 33 83 79 0 65 -39 88 -146 88 l-64 0 0 -118z m114 52
c21 -8 21 -40 0 -48 -28 -11 -34 -7 -34 24 0 31 6 35 34 24z"/>
<path d="M929 214 c-24 -59 -44 -111 -44 -117 0 -5 17 -10 38 -11 27 -1 39 4
43 17 8 25 90 25 98 0 4 -13 16 -18 46 -18 22 0 40 3 40 8 0 4 -21 57 -47 117
l-48 110 -40 0 -41 0 -45 -106z m100 -21 c11 -21 9 -23 -13 -23 -24 0 -25 2
-14 25 6 14 12 24 13 23 1 -2 8 -13 14 -25z"/>
<path d="M1351 298 c-5 -13 -11 -34 -15 -48 -6 -23 -6 -23 7 -7 17 21 47 23
47 2 0 -8 4 -15 9 -15 6 0 3 20 -6 45 -17 50 -29 57 -42 23z m29 -19 c0 -5 -4
-9 -10 -9 -5 0 -10 7 -10 16 0 8 5 12 10 9 6 -3 10 -10 10 -16z"/>
<path d="M1431 311 c-7 -5 -13 -21 -13 -36 0 -32 17 -46 52 -43 35 4 43 48 8
47 -13 0 -17 -3 -10 -6 22 -9 14 -35 -10 -31 -18 2 -23 10 -23 33 0 25 5 31
30 36 27 6 27 7 5 8 -14 0 -31 -3 -39 -8z"/>
<path d="M1535 291 c3 -20 -1 -35 -12 -46 -16 -16 -15 -17 3 -13 15 2 20 13
22 46 2 25 -1 42 -8 42 -6 0 -8 -12 -5 -29z"/>
<path d="M1570 275 c0 -43 1 -45 28 -44 23 2 24 2 5 6 -13 2 -23 11 -23 18 0
7 10 16 23 18 l22 4 -22 2 c-13 0 -23 7 -23 15 0 8 10 17 23 19 19 4 18 4 -5
6 -27 1 -28 -1 -28 -44z"/>
<path d="M1641 273 l2 -48 6 40 6 40 18 -32 c26 -48 35 -47 39 2 2 25 0 45 -4
45 -5 0 -8 -15 -8 -32 l0 -33 -21 33 c-29 44 -39 40 -38 -15z"/>
<path d="M1823 275 c0 -27 2 -38 4 -22 2 15 2 37 0 50 -2 12 -4 0 -4 -28z"/>
<path d="M1866 279 c-9 -23 -15 -44 -12 -47 3 -3 8 3 12 12 8 20 44 21 44 1 0
-8 5 -15 11 -15 7 0 8 7 4 18 -4 9 -12 29 -17 45 -14 37 -23 34 -42 -14z m34
0 c0 -5 -4 -9 -10 -9 -5 0 -10 7 -10 16 0 8 5 12 10 9 6 -3 10 -10 10 -16z"/>
<path d="M1972 275 c-1 -44 1 -47 10 -25 l10 25 15 -22 c9 -13 20 -23 25 -23
5 0 0 13 -11 29 -18 25 -19 30 -6 41 9 7 13 15 10 18 -3 3 -13 -5 -22 -18
l-17 -24 -7 24 c-5 18 -7 11 -7 -25z"/>
<path d="M2150 306 c0 -7 -3 -28 -6 -45 -4 -20 -3 -31 5 -31 6 0 11 15 12 33
l1 32 10 -32 c14 -43 23 -42 39 5 l14 37 6 -40 6 -40 2 48 c1 57 -16 60 -34 6
l-12 -34 -12 38 c-12 36 -31 51 -31 23z"/>
<path d="M2260 275 c0 -45 1 -46 28 -43 24 3 27 7 27 43 0 36 -3 40 -27 43
-27 3 -28 2 -28 -43z m48 23 c-3 -7 -11 -13 -18 -13 -7 0 -15 6 -17 13 -3 7 4
12 17 12 13 0 20 -5 18 -12z m2 -43 c0 -8 -9 -15 -20 -15 -11 0 -20 7 -20 15
0 8 9 15 20 15 11 0 20 -7 20 -15z"/>
<path d="M2340 275 c0 -44 0 -45 33 -44 30 2 30 2 5 6 -34 5 -38 33 -5 34 l22
0 -22 9 c-13 5 -23 14 -23 19 0 5 10 12 23 14 19 4 18 4 -5 6 -27 1 -28 -1
-28 -44z"/>
<path d="M2412 313 c12 -3 18 -17 21 -46 l4 -42 1 42 c2 30 7 43 20 46 9 3 -1
5 -23 5 -22 0 -32 -2 -23 -5z"/>
<path d="M2491 298 c-5 -13 -11 -34 -15 -48 -6 -23 -6 -23 7 -7 17 21 47 23
47 2 0 -8 4 -15 9 -15 6 0 3 20 -6 45 -17 50 -29 57 -42 23z m29 -19 c0 -5 -4
-9 -10 -9 -5 0 -10 7 -10 16 0 8 5 12 10 9 6 -3 10 -10 10 -16z"/>
<path d="M2560 275 c0 -25 5 -45 10 -45 6 0 10 9 10 20 0 11 5 20 11 20 6 0
13 -9 16 -20 3 -11 9 -20 14 -20 5 0 4 11 -1 25 -6 15 -6 27 0 30 18 11 -3 35
-31 35 -28 0 -29 -2 -29 -45z m50 20 c0 -8 -7 -15 -15 -15 -8 0 -15 7 -15 15
0 8 7 15 15 15 8 0 15 -7 15 -15z"/>
<path d="M2640 275 c0 -44 0 -45 33 -44 23 1 26 3 10 6 -27 5 -31 30 -5 36 16
4 16 5 0 6 -26 2 -22 29 5 34 16 3 13 5 -10 6 -33 1 -33 0 -33 -44z"/>
<path d="M2750 275 c0 -43 1 -45 28 -44 23 2 24 2 5 6 -13 2 -23 11 -23 18 0
7 10 16 23 18 l22 4 -22 2 c-13 0 -23 7 -23 15 0 8 10 17 23 19 19 4 18 4 -5
6 -27 1 -28 -1 -28 -44z"/>
<path d="M430 245 c-43 -44 -45 -45 -50 -23 -4 16 -14 24 -33 26 l-27 3 0 -80
c0 -71 2 -81 18 -81 10 0 33 16 52 35 l34 35 37 -36 c32 -31 44 -37 87 -38
l50 -1 -28 35 c-16 19 -42 48 -59 64 l-31 30 37 38 37 38 -40 0 c-34 0 -46 -7
-84 -45z"/>
<path d="M1233 200 c0 -30 2 -43 4 -27 2 15 2 39 0 55 -2 15 -4 2 -4 -28z"/>
<path d="M1614 168 c3 -10 1 -18 -4 -18 -6 0 -10 -20 -10 -45 0 -44 0 -45 33
-44 23 1 26 3 10 6 -25 5 -32 33 -8 33 8 0 15 5 15 10 0 6 -7 10 -15 10 -8 0
-15 5 -15 10 0 6 6 10 13 10 7 0 14 10 14 22 2 18 0 20 -7 8 -9 -13 -11 -13
-21 0 -9 13 -10 12 -5 -2z"/>
<path d="M2566 164 c-3 -9 -6 -36 -6 -60 0 -43 1 -44 33 -43 30 2 30 2 5 6
-32 5 -38 33 -8 33 11 0 20 5 20 10 0 6 -9 10 -20 10 -11 0 -20 5 -20 10 0 6
9 10 20 10 22 0 27 15 8 26 -6 4 -8 3 -5 -3 3 -5 0 -10 -7 -10 -8 0 -12 6 -9
14 3 7 3 13 0 13 -3 0 -8 -7 -11 -16z"/>
<path d="M1339 158 c-6 -13 -3 -98 3 -98 4 0 8 9 8 20 0 11 6 20 14 20 7 0 20
7 27 16 11 14 10 18 -6 30 -16 12 -43 19 -46 12z m39 -31 c2 -10 -3 -17 -12
-17 -10 0 -16 9 -16 21 0 24 23 21 28 -4z"/>
<path d="M1511 110 l2 -55 7 45 c4 25 4 49 -1 55 -5 5 -8 -13 -8 -45z"/>
<path d="M1570 123 l0 -38 -21 25 c-22 27 -22 22 0 -22 21 -41 31 -34 31 22 0
28 -2 50 -5 50 -3 0 -5 -17 -5 -37z"/>
<path d="M1679 144 c-12 -14 -9 -20 16 -40 21 -17 25 -24 15 -28 -8 -2 -22 -7
-30 -9 -8 -3 -2 -6 13 -6 41 -1 46 26 11 55 -26 21 -23 30 9 25 4 0 7 4 7 9 0
16 -26 12 -41 -6z"/>
<path d="M1753 110 c0 -30 2 -43 4 -28 2 16 2 40 0 55 -2 16 -4 3 -4 -27z"/>
<path d="M1787 153 c-4 -3 -6 -27 -5 -52 l1 -46 5 40 4 40 18 -40 18 -40 14
34 15 33 8 -33 9 -34 3 30 c2 17 0 42 -6 55 -9 25 -9 24 -26 -15 l-18 -40 -11
32 c-13 37 -20 46 -29 36z"/>
<path d="M1903 110 c0 -30 2 -43 4 -28 2 16 2 40 0 55 -2 16 -4 3 -4 -27z"/>
<path d="M1925 150 c-3 -5 1 -10 9 -10 12 0 16 -10 16 -40 0 -22 5 -40 10 -40
6 0 10 18 10 40 0 22 5 40 10 40 6 0 10 5 10 10 0 6 -13 10 -29 10 -17 0 -33
-4 -36 -10z"/>
<path d="M2047 153 c-4 -3 -7 -26 -7 -50 0 -38 2 -43 23 -43 27 0 57 28 57 53
0 27 -56 58 -73 40z m37 -16 c25 -18 18 -61 -11 -65 -21 -3 -23 1 -23 37 0 44
6 49 34 28z"/>
<path d="M2230 110 c0 -48 1 -50 28 -49 23 2 24 2 5 6 -28 5 -30 33 -3 33 11
0 20 5 20 10 0 6 -9 10 -20 10 -11 0 -20 5 -20 10 0 6 9 10 20 10 11 0 20 5
20 10 0 6 -11 10 -25 10 -23 0 -25 -3 -25 -50z"/>
<path d="M2421 108 c1 -29 4 -43 6 -31 2 12 12 24 21 26 15 4 15 5 0 6 -25 1
-23 31 2 31 11 0 20 5 20 10 0 6 -11 10 -25 10 -24 0 -25 -3 -24 -52z"/>
<path d="M2480 150 c0 -5 7 -10 16 -10 13 0 15 -8 12 -40 -2 -22 0 -40 4 -40
5 0 8 18 8 40 0 30 4 40 16 40 8 0 12 5 9 10 -3 6 -19 10 -36 10 -16 0 -29 -4
-29 -10z"/>
<path d="M2643 153 c-20 -8 -15 -41 7 -48 27 -9 25 -33 -2 -38 -22 -4 -22 -4
-2 -6 32 -2 49 23 30 42 -9 8 -21 17 -28 19 -6 2 -8 10 -4 17 5 7 15 10 23 7
8 -3 11 -1 8 4 -7 11 -13 11 -32 3z"/>
<path d="M2734 138 c10 -44 25 -78 33 -78 5 0 15 20 24 45 9 25 13 45 9 45 -5
0 -14 -17 -21 -37 l-12 -38 -14 39 c-16 47 -29 62 -19 24z"/>
<path d="M2820 110 c0 -48 1 -50 28 -49 23 2 24 2 5 6 -28 5 -30 33 -3 33 11
0 20 5 20 10 0 6 -9 10 -20 10 -11 0 -20 5 -20 10 0 6 9 10 20 10 11 0 20 5
20 10 0 6 -11 10 -25 10 -23 0 -25 -3 -25 -50z"/>
<path d="M1410 117 c0 -37 15 -57 42 -57 21 0 38 29 38 64 0 40 -18 30 -22
-11 -2 -27 -8 -39 -20 -41 -15 -3 -18 4 -18 37 0 23 -4 41 -10 41 -5 0 -10
-15 -10 -33z"/>
<path d="M2130 105 c0 -25 5 -45 10 -45 6 0 10 9 10 20 0 13 7 20 20 20 13 0
20 -7 20 -20 0 -11 5 -20 10 -20 6 0 10 20 10 45 0 25 -4 45 -10 45 -5 0 -10
-7 -10 -15 0 -8 -9 -15 -20 -15 -11 0 -20 7 -20 15 0 8 -4 15 -10 15 -5 0 -10
-20 -10 -45z"/>
<path d="M2336 109 c-9 -23 -15 -44 -12 -47 3 -3 8 3 12 12 8 21 33 21 51 -1
13 -16 13 -16 7 7 -22 82 -35 88 -58 29z m34 6 c0 -8 -4 -15 -10 -15 -5 0 -10
7 -10 15 0 8 5 15 10 15 6 0 10 -7 10 -15z"/>
<path d="M2700 105 c0 -25 5 -45 10 -45 6 0 10 20 10 45 0 25 -4 45 -10 45 -5
0 -10 -20 -10 -45z"/>
</g>
</svg>
