<?xml version="1.0" standalone="no"?>
<!DOCTYPE svg PUBLIC "-//W3C//DTD SVG 20010904//EN"
 "http://www.w3.org/TR/2001/REC-SVG-20010904/DTD/svg10.dtd">
<svg version="1.0" xmlns="http://www.w3.org/2000/svg"
 width="65.000000pt" height="65.000000pt" viewBox="0 0 65.000000 65.000000"
 preserveAspectRatio="xMidYMid meet">

<g transform="translate(0.000000,65.000000) scale(0.100000,-0.100000)"
fill="#000000" stroke="none">
<path d="M17 563 c8 -52 13 -54 13 -5 0 23 -4 42 -9 42 -6 0 -7 -17 -4 -37z"/>
<path d="M60 584 c0 -9 8 -23 18 -31 16 -14 16 -14 0 -9 -12 3 -18 0 -18 -9 0
-8 9 -15 20 -15 17 0 20 7 20 40 0 33 -3 40 -20 40 -12 0 -20 -7 -20 -16z m30
-4 c0 -5 -4 -10 -10 -10 -5 0 -10 5 -10 10 0 6 5 10 10 10 6 0 10 -4 10 -10z"/>
<path d="M130 580 c0 -11 5 -20 10 -20 6 0 10 -5 10 -11 0 -5 -4 -7 -10 -4 -5
3 -10 -1 -10 -9 0 -9 9 -16 20 -16 26 0 28 47 3 57 -15 6 -15 7 3 14 17 7 17
8 -3 8 -17 1 -23 -5 -23 -19z"/>
<path d="M190 589 c0 -6 6 -9 14 -6 9 4 14 -2 14 -18 0 -17 -5 -22 -16 -18
-10 4 -13 1 -10 -8 2 -8 14 -15 25 -17 18 -3 20 2 20 37 0 36 -2 41 -23 41
-13 0 -24 -5 -24 -11z"/>
<path d="M227 418 c-53 -46 -106 -91 -119 -100 l-23 -17 25 -1 c14 0 35 6 46
14 24 17 115 66 122 66 3 0 2 -22 -1 -50 l-6 -50 78 0 c64 0 83 4 105 21 31
25 32 33 5 60 -16 16 -18 23 -9 34 16 19 -3 53 -34 61 -13 3 -40 -1 -60 -10
-35 -15 -36 -14 -36 8 0 12 5 27 12 34 8 8 8 12 1 12 -6 0 -54 -37 -106 -82z
m53 5 c0 -10 -42 -53 -52 -53 -5 0 1 14 14 30 20 28 38 39 38 23z m120 -11 c0
-5 -11 -14 -25 -20 -32 -15 -32 -32 -1 -32 13 0 28 -6 35 -13 16 -20 -7 -37
-51 -37 l-38 0 0 49 c0 39 4 51 18 54 30 8 62 7 62 -1z"/>
<path d="M378 256 c-31 -6 -63 -17 -71 -24 -11 -10 -17 -9 -27 3 -15 18 -170
22 -170 5 0 -5 9 -10 20 -10 27 0 26 -18 -2 -22 -12 -2 -23 -9 -26 -17 -3 -10
2 -12 22 -7 19 5 26 3 26 -8 0 -9 -12 -16 -27 -18 -26 -3 -28 -6 -28 -48 0
-39 3 -45 23 -48 17 -3 22 2 22 17 0 12 -6 21 -15 21 -8 0 -15 7 -15 15 0 9 6
12 15 9 8 -4 15 -1 15 5 0 6 5 11 10 11 6 0 10 -19 11 -42 0 -24 3 -37 6 -30
3 9 9 10 17 3 9 -7 12 0 13 30 2 30 -2 39 -15 40 -9 0 6 6 33 13 28 7 54 9 60
4 5 -4 8 -28 6 -53 -2 -40 0 -45 18 -45 18 0 21 6 21 43 0 60 7 67 60 57 75
-15 140 -12 140 5 0 9 -9 15 -25 15 -14 0 -25 5 -25 10 0 6 9 10 20 10 11 0
20 5 20 10 0 6 -11 10 -25 10 -14 0 -25 5 -25 10 0 6 9 10 21 10 32 0 17 25
-17 27 -16 1 -54 -4 -86 -11z m-28 -48 c0 -16 -3 -19 -11 -11 -6 6 -8 16 -5
22 11 17 16 13 16 -11z m60 18 c0 -3 -4 -8 -10 -11 -5 -3 -10 -1 -10 4 0 6 5
11 10 11 6 0 10 -2 10 -4z m-131 -37 c18 -11 31 -22 28 -25 -3 -3 -16 2 -29
10 -14 9 -28 13 -31 9 -4 -3 -7 -1 -7 7 0 10 -4 10 -17 -1 -9 -8 -14 -9 -10
-2 4 7 0 13 -10 16 -10 3 -5 5 12 6 17 0 45 -8 64 -20z m31 -69 c0 -5 -5 -10
-11 -10 -5 0 -7 5 -4 10 3 6 8 10 11 10 2 0 4 -4 4 -10z"/>
<path d="M45 114 c-4 -16 -8 -34 -10 -40 -2 -6 7 -11 20 -11 21 0 23 3 18 31
-8 45 -21 54 -28 20z"/>
<path d="M220 100 c0 -33 3 -40 20 -40 17 0 20 7 20 40 0 33 -3 40 -20 40 -17
0 -20 -7 -20 -40z m27 -17 c-4 -17 -4 -17 -12 0 -4 9 -4 25 0 35 8 16 8 16 12
0 3 -10 3 -26 0 -35z"/>
<path d="M340 100 c0 -22 5 -40 10 -40 6 0 10 18 10 40 0 22 -4 40 -10 40 -5
0 -10 -18 -10 -40z"/>
<path d="M378 132 c10 -7 10 -15 2 -36 -13 -36 -13 -36 13 -36 16 0 18 3 8 9
-10 6 -11 13 -2 29 16 31 13 42 -11 42 -16 0 -19 -3 -10 -8z"/>
<path d="M431 100 c0 -25 3 -39 6 -32 4 10 8 10 19 1 12 -10 14 -4 13 32 0 31
-3 38 -8 24 -8 -19 -8 -19 -19 0 -10 17 -11 13 -11 -25z"/>
<path d="M490 100 c0 -31 4 -40 18 -40 14 0 15 2 2 10 -13 9 -13 11 0 21 12 8
12 12 2 16 -10 4 -10 8 -1 19 9 11 8 14 -5 14 -12 0 -16 -10 -16 -40z"/>
<path d="M540 126 c0 -7 7 -19 15 -26 8 -7 15 -17 15 -22 0 -6 -7 -5 -15 2
-12 10 -15 10 -15 -4 0 -9 8 -16 19 -16 27 0 33 14 16 36 -19 25 -19 35 2 27
11 -4 14 -3 9 5 -10 17 -46 15 -46 -2z"/>
</g>
</svg>
